<svg xmlns="http://www.w3.org/2000/svg" xmlns:xlink="http://www.w3.org/1999/xlink" width="1920" height="1080" viewBox="0 0 1920 1080">
  <defs>
    <radialGradient id="radial-gradient" cx="0.684" cy="0.5" r="0.835" gradientTransform="matrix(0.561, -0.003, 0.001, 0.548, 0.3, 0.228)" gradientUnits="objectBoundingBox">
      <stop offset="0" stop-color="#e1e5eb"/>
      <stop offset="1" stop-color="#fff" stop-opacity="0"/>
    </radialGradient>
    <clipPath id="clip-bg-pattern">
      <rect width="1920" height="1080"/>
    </clipPath>
  </defs>
  <g id="bg-pattern" clip-path="url(#clip-bg-pattern)">
    <g id="Group_2" data-name="Group 2">
      <path id="Union_1" data-name="Union 1" d="M1686.229,1019.551A16.275,16.275,0,0,1,1670,1003.322V926.23A16.276,16.276,0,0,1,1686.229,910h113.589a16.276,16.276,0,0,1,16.23,16.23v77.092a16.276,16.276,0,0,1-16.23,16.229ZM1676.1,927.914v73.709c0,8.182,3.651,11.833,11.833,11.833h110.206c8.182,0,11.833-3.651,11.833-11.833V927.914c0-8.182-3.651-11.833-11.833-11.833H1687.928C1679.747,916.08,1676.1,919.732,1676.1,927.914Zm-156.866,91.637A16.276,16.276,0,0,1,1503,1003.322V926.23A16.276,16.276,0,0,1,1519.229,910h113.59a16.276,16.276,0,0,1,16.229,16.23v77.092a16.276,16.276,0,0,1-16.229,16.229Zm-10.134-91.637v73.709c0,8.182,3.651,11.833,11.833,11.833h110.207c8.181,0,11.832-3.651,11.832-11.833V927.914c0-8.182-3.651-11.833-11.832-11.833H1520.928C1512.746,916.08,1509.095,919.732,1509.095,927.914Zm-156.865,91.637a16.276,16.276,0,0,1-16.23-16.229V926.23a16.276,16.276,0,0,1,16.23-16.23h113.589a16.276,16.276,0,0,1,16.23,16.23v77.092a16.276,16.276,0,0,1-16.23,16.229ZM1342.1,927.914v73.709c0,8.182,3.651,11.833,11.833,11.833h110.206c8.182,0,11.833-3.651,11.833-11.833V927.914c0-8.182-3.651-11.833-11.833-11.833H1353.929C1345.747,916.08,1342.1,919.732,1342.1,927.914Zm-156.866,91.637A16.276,16.276,0,0,1,1169,1003.322V926.23A16.276,16.276,0,0,1,1185.229,910h113.59a16.276,16.276,0,0,1,16.229,16.23v77.092a16.276,16.276,0,0,1-16.229,16.229Zm-10.134-91.637v73.709c0,8.182,3.651,11.833,11.833,11.833h110.207c8.181,0,11.832-3.651,11.832-11.833V927.914c0-8.182-3.651-11.833-11.832-11.833H1186.928C1178.746,916.08,1175.095,919.732,1175.095,927.914Zm-156.866,91.637a16.276,16.276,0,0,1-16.23-16.229V926.23a16.276,16.276,0,0,1,16.23-16.23h113.589a16.276,16.276,0,0,1,16.23,16.23v77.092a16.276,16.276,0,0,1-16.23,16.229ZM1008.1,927.914v73.709c0,8.182,3.651,11.833,11.832,11.833h110.207c8.182,0,11.833-3.651,11.833-11.833V927.914c0-8.182-3.651-11.833-11.833-11.833H1019.928C1011.747,916.08,1008.1,919.732,1008.1,927.914Zm-156.866,91.637A16.275,16.275,0,0,1,835,1003.322V926.23A16.276,16.276,0,0,1,851.229,910h113.59a16.276,16.276,0,0,1,16.229,16.23v77.092a16.276,16.276,0,0,1-16.229,16.229ZM841.1,927.914v73.709c0,8.182,3.651,11.833,11.833,11.833H963.134c8.182,0,11.833-3.651,11.833-11.833V927.914c0-8.182-3.651-11.833-11.833-11.833H852.928C844.746,916.08,841.1,919.732,841.1,927.914Zm-156.866,91.637A16.276,16.276,0,0,1,668,1003.322V926.23A16.276,16.276,0,0,1,684.229,910H797.819a16.276,16.276,0,0,1,16.229,16.23v77.092a16.275,16.275,0,0,1-16.229,16.229ZM674.1,927.914v73.709c0,8.182,3.651,11.833,11.832,11.833H796.135c8.182,0,11.832-3.651,11.832-11.833V927.914c0-8.182-3.65-11.833-11.832-11.833H685.928C677.747,916.08,674.1,919.732,674.1,927.914Zm-156.866,91.637A16.275,16.275,0,0,1,501,1003.322V926.23A16.276,16.276,0,0,1,517.229,910H630.818a16.276,16.276,0,0,1,16.23,16.23v77.092a16.276,16.276,0,0,1-16.23,16.229ZM507.1,927.914v73.709c0,8.182,3.651,11.833,11.833,11.833H629.134c8.182,0,11.833-3.651,11.833-11.833V927.914c0-8.182-3.651-11.833-11.833-11.833H518.928C510.746,916.08,507.1,919.732,507.1,927.914ZM350.23,1019.551A16.276,16.276,0,0,1,334,1003.322V926.23A16.276,16.276,0,0,1,350.23,910H463.819a16.276,16.276,0,0,1,16.229,16.23v77.092a16.275,16.275,0,0,1-16.229,16.229ZM340.1,927.914v73.709c0,8.182,3.651,11.833,11.832,11.833H462.135c8.182,0,11.832-3.651,11.832-11.833V927.914c0-8.182-3.65-11.833-11.832-11.833H351.928C343.747,916.08,340.1,919.732,340.1,927.914Zm-156.866,91.637A16.275,16.275,0,0,1,167,1003.322V926.23A16.276,16.276,0,0,1,183.229,910H296.818a16.276,16.276,0,0,1,16.23,16.23v77.092a16.276,16.276,0,0,1-16.23,16.229ZM173.1,927.914v73.709c0,8.182,3.651,11.833,11.833,11.833H295.134c8.182,0,11.833-3.651,11.833-11.833V927.914c0-8.182-3.651-11.833-11.833-11.833H184.928C176.747,916.08,173.1,919.732,173.1,927.914ZM16.229,1019.551A16.276,16.276,0,0,1,0,1003.322V926.23A16.276,16.276,0,0,1,16.229,910h113.59a16.276,16.276,0,0,1,16.229,16.23v77.092a16.276,16.276,0,0,1-16.229,16.229ZM6.1,927.914v73.709c0,8.182,3.65,11.833,11.832,11.833H128.135c8.181,0,11.832-3.651,11.832-11.833V927.914c0-8.182-3.651-11.833-11.832-11.833H17.928C9.746,916.08,6.1,919.732,6.1,927.914Zm1679.12,76.422V976.944l30.432-24.351,15.2,12.175L1770.4,931.3l30.432,27.391v45.648Zm-167,0V976.944l30.432-24.351,15.2,12.175L1603.4,931.3l30.432,27.391v45.648Zm-167,0V976.944l30.432-24.351,15.2,12.175L1436.4,931.3l30.432,27.391v45.648Zm-167,0V976.944l30.432-24.351,15.2,12.175L1269.4,931.3l30.432,27.391v45.648Zm-167,0V976.944l30.432-24.351,15.2,12.175L1102.4,931.3l30.432,27.391v45.648Zm-167,0V976.944l30.432-24.351,15.2,12.175L935.4,931.3l30.432,27.391v45.648Zm-167,0V976.944l30.431-24.351,15.2,12.175L768.4,931.3l30.432,27.391v45.648Zm-167,0V976.944l30.432-24.351,15.2,12.175L601.4,931.3l30.431,27.391v45.648Zm-167,0V976.944l30.431-24.351,15.2,12.175L434.4,931.3l30.432,27.391v45.648Zm-167,0V976.944l30.432-24.351,15.2,12.175L267.4,931.3l30.431,27.391v45.648Zm-167,0V976.944l30.432-24.351,15.2,12.175L100.4,931.3l30.432,27.391v45.648Zm1670-66.944a12.176,12.176,0,1,1,12.175,12.175A12.179,12.179,0,0,1,1685.216,937.391Zm-167,0a12.176,12.176,0,1,1,12.176,12.175A12.18,12.18,0,0,1,1518.215,937.391Zm-167,0a12.176,12.176,0,1,1,12.175,12.175A12.179,12.179,0,0,1,1351.216,937.391Zm-167,0a12.176,12.176,0,1,1,12.176,12.175A12.18,12.18,0,0,1,1184.216,937.391Zm-167,0a12.176,12.176,0,1,1,12.175,12.175A12.179,12.179,0,0,1,1017.216,937.391Zm-167,0a12.176,12.176,0,1,1,12.176,12.175A12.18,12.18,0,0,1,850.216,937.391Zm-167,0a12.176,12.176,0,1,1,12.175,12.175A12.179,12.179,0,0,1,683.216,937.391Zm-167,0a12.176,12.176,0,1,1,12.176,12.175A12.18,12.18,0,0,1,516.216,937.391Zm-167,0a12.175,12.175,0,1,1,12.175,12.175A12.179,12.179,0,0,1,349.216,937.391Zm-167,0a12.176,12.176,0,1,1,12.175,12.175A12.179,12.179,0,0,1,182.216,937.391Zm-167,0a12.176,12.176,0,1,1,12.176,12.175A12.18,12.18,0,0,1,15.215,937.391Zm1671.014-47.84A16.276,16.276,0,0,1,1670,873.321V796.229A16.275,16.275,0,0,1,1686.229,780h113.589a16.276,16.276,0,0,1,16.23,16.229v77.092a16.276,16.276,0,0,1-16.23,16.23ZM1676.1,797.913v73.709c0,8.182,3.651,11.833,11.833,11.833h110.206c8.182,0,11.833-3.651,11.833-11.833V797.913c0-8.182-3.651-11.832-11.833-11.832H1687.928C1679.747,786.081,1676.1,789.731,1676.1,797.913Zm-156.866,91.638A16.276,16.276,0,0,1,1503,873.321V796.229A16.275,16.275,0,0,1,1519.229,780h113.59a16.275,16.275,0,0,1,16.229,16.229v77.092a16.276,16.276,0,0,1-16.229,16.23Zm-10.134-91.638v73.709c0,8.182,3.651,11.833,11.833,11.833h110.207c8.181,0,11.832-3.651,11.832-11.833V797.913c0-8.182-3.651-11.832-11.832-11.832H1520.928C1512.746,786.081,1509.095,789.731,1509.095,797.913Zm-156.865,91.638a16.276,16.276,0,0,1-16.23-16.23V796.229A16.276,16.276,0,0,1,1352.229,780h113.589a16.276,16.276,0,0,1,16.23,16.229v77.092a16.276,16.276,0,0,1-16.23,16.23ZM1342.1,797.913v73.709c0,8.182,3.651,11.833,11.833,11.833h110.206c8.182,0,11.833-3.651,11.833-11.833V797.913c0-8.182-3.651-11.832-11.833-11.832H1353.929C1345.747,786.081,1342.1,789.731,1342.1,797.913Zm-156.866,91.638A16.276,16.276,0,0,1,1169,873.321V796.229A16.275,16.275,0,0,1,1185.229,780h113.59a16.275,16.275,0,0,1,16.229,16.229v77.092a16.276,16.276,0,0,1-16.229,16.23Zm-10.134-91.638v73.709c0,8.182,3.651,11.833,11.833,11.833h110.207c8.181,0,11.832-3.651,11.832-11.833V797.913c0-8.182-3.651-11.832-11.832-11.832H1186.928C1178.746,786.081,1175.095,789.731,1175.095,797.913Zm-156.866,91.638a16.276,16.276,0,0,1-16.23-16.23V796.229A16.276,16.276,0,0,1,1018.229,780h113.589a16.276,16.276,0,0,1,16.23,16.229v77.092a16.276,16.276,0,0,1-16.23,16.23ZM1008.1,797.913v73.709c0,8.182,3.651,11.833,11.832,11.833h110.207c8.182,0,11.833-3.651,11.833-11.833V797.913c0-8.182-3.651-11.832-11.833-11.832H1019.928C1011.747,786.081,1008.1,789.731,1008.1,797.913ZM851.229,889.551A16.276,16.276,0,0,1,835,873.321V796.229A16.275,16.275,0,0,1,851.229,780h113.59a16.275,16.275,0,0,1,16.229,16.229v77.092a16.276,16.276,0,0,1-16.229,16.23ZM841.1,797.913v73.709c0,8.182,3.651,11.833,11.833,11.833H963.134c8.182,0,11.833-3.651,11.833-11.833V797.913c0-8.182-3.651-11.832-11.833-11.832H852.928C844.746,786.081,841.1,789.731,841.1,797.913ZM684.229,889.551A16.276,16.276,0,0,1,668,873.321V796.229A16.276,16.276,0,0,1,684.229,780H797.819a16.275,16.275,0,0,1,16.229,16.229v77.092a16.276,16.276,0,0,1-16.229,16.23ZM674.1,797.913v73.709c0,8.182,3.651,11.833,11.832,11.833H796.135c8.182,0,11.832-3.651,11.832-11.833V797.913c0-8.182-3.65-11.832-11.832-11.832H685.928C677.747,786.081,674.1,789.731,674.1,797.913ZM517.229,889.551A16.276,16.276,0,0,1,501,873.321V796.229A16.275,16.275,0,0,1,517.229,780H630.818a16.276,16.276,0,0,1,16.23,16.229v77.092a16.276,16.276,0,0,1-16.23,16.23ZM507.1,797.913v73.709c0,8.182,3.651,11.833,11.833,11.833H629.134c8.182,0,11.833-3.651,11.833-11.833V797.913c0-8.182-3.651-11.832-11.833-11.832H518.928C510.746,786.081,507.1,789.731,507.1,797.913ZM350.23,889.551A16.276,16.276,0,0,1,334,873.321V796.229A16.276,16.276,0,0,1,350.23,780H463.819a16.275,16.275,0,0,1,16.229,16.229v77.092a16.276,16.276,0,0,1-16.229,16.23ZM340.1,797.913v73.709c0,8.182,3.651,11.833,11.832,11.833H462.135c8.182,0,11.832-3.651,11.832-11.833V797.913c0-8.182-3.65-11.832-11.832-11.832H351.928C343.747,786.081,340.1,789.731,340.1,797.913ZM183.229,889.551A16.276,16.276,0,0,1,167,873.321V796.229A16.275,16.275,0,0,1,183.229,780H296.818a16.276,16.276,0,0,1,16.23,16.229v77.092a16.276,16.276,0,0,1-16.23,16.23ZM173.1,797.913v73.709c0,8.182,3.651,11.833,11.833,11.833H295.134c8.182,0,11.833-3.651,11.833-11.833V797.913c0-8.182-3.651-11.832-11.833-11.832H184.928C176.747,786.081,173.1,789.731,173.1,797.913ZM16.229,889.551A16.276,16.276,0,0,1,0,873.321V796.229A16.275,16.275,0,0,1,16.229,780h113.59a16.275,16.275,0,0,1,16.229,16.229v77.092a16.276,16.276,0,0,1-16.229,16.23ZM6.1,797.913v73.709c0,8.182,3.65,11.833,11.832,11.833H128.135c8.181,0,11.832-3.651,11.832-11.833V797.913c0-8.182-3.651-11.832-11.832-11.832H17.928C9.746,786.081,6.1,789.731,6.1,797.913Zm1679.12,76.422V846.943l30.432-24.351,15.2,12.176L1770.4,801.3l30.432,27.391v45.647Zm-167,0V846.943l30.432-24.351,15.2,12.176L1603.4,801.3l30.432,27.391v45.647Zm-167,0V846.943l30.432-24.351,15.2,12.176L1436.4,801.3l30.432,27.391v45.647Zm-167,0V846.943l30.432-24.351,15.2,12.176L1269.4,801.3l30.432,27.391v45.647Zm-167,0V846.943l30.432-24.351,15.2,12.176L1102.4,801.3l30.432,27.391v45.647Zm-167,0V846.943l30.432-24.351,15.2,12.176L935.4,801.3l30.432,27.391v45.647Zm-167,0V846.943l30.431-24.351,15.2,12.176L768.4,801.3l30.432,27.391v45.647Zm-167,0V846.943l30.432-24.351,15.2,12.176L601.4,801.3l30.431,27.391v45.647Zm-167,0V846.943l30.431-24.351,15.2,12.176L434.4,801.3l30.432,27.391v45.647Zm-167,0V846.943l30.432-24.351,15.2,12.176L267.4,801.3l30.431,27.391v45.647Zm-167,0V846.943l30.432-24.351,15.2,12.176L100.4,801.3l30.432,27.391v45.647Zm1670-66.944a12.176,12.176,0,1,1,12.175,12.176A12.18,12.18,0,0,1,1685.216,807.391Zm-167,0a12.176,12.176,0,1,1,12.176,12.176A12.18,12.18,0,0,1,1518.215,807.391Zm-167,0a12.176,12.176,0,1,1,12.175,12.176A12.18,12.18,0,0,1,1351.216,807.391Zm-167,0a12.176,12.176,0,1,1,12.176,12.176A12.18,12.18,0,0,1,1184.216,807.391Zm-167,0a12.176,12.176,0,1,1,12.175,12.176A12.18,12.18,0,0,1,1017.216,807.391Zm-167,0a12.176,12.176,0,1,1,12.176,12.176A12.18,12.18,0,0,1,850.216,807.391Zm-167,0a12.176,12.176,0,1,1,12.175,12.176A12.18,12.18,0,0,1,683.216,807.391Zm-167,0a12.176,12.176,0,1,1,12.176,12.176A12.18,12.18,0,0,1,516.216,807.391Zm-167,0a12.175,12.175,0,1,1,12.175,12.176A12.18,12.18,0,0,1,349.216,807.391Zm-167,0a12.176,12.176,0,1,1,12.175,12.176A12.18,12.18,0,0,1,182.216,807.391Zm-167,0a12.176,12.176,0,1,1,12.176,12.176A12.18,12.18,0,0,1,15.215,807.391Zm1671.014-47.84A16.275,16.275,0,0,1,1670,743.322V666.229A16.276,16.276,0,0,1,1686.229,650h113.589a16.276,16.276,0,0,1,16.23,16.23v77.092a16.276,16.276,0,0,1-16.23,16.229ZM1676.1,667.913v73.709c0,8.182,3.651,11.833,11.833,11.833h110.206c8.182,0,11.833-3.651,11.833-11.833V667.913c0-8.182-3.651-11.833-11.833-11.833H1687.928C1679.747,656.08,1676.1,659.732,1676.1,667.913Zm-156.866,91.637A16.276,16.276,0,0,1,1503,743.322V666.229A16.276,16.276,0,0,1,1519.229,650h113.59a16.276,16.276,0,0,1,16.229,16.23v77.092a16.276,16.276,0,0,1-16.229,16.229Zm-10.134-91.637v73.709c0,8.182,3.651,11.833,11.833,11.833h110.207c8.181,0,11.832-3.651,11.832-11.833V667.913c0-8.182-3.651-11.833-11.832-11.833H1520.928C1512.746,656.08,1509.095,659.732,1509.095,667.913Zm-156.865,91.637A16.276,16.276,0,0,1,1336,743.322V666.229a16.276,16.276,0,0,1,16.23-16.23h113.589a16.276,16.276,0,0,1,16.23,16.23v77.092a16.276,16.276,0,0,1-16.23,16.229ZM1342.1,667.913v73.709c0,8.182,3.651,11.833,11.833,11.833h110.206c8.182,0,11.833-3.651,11.833-11.833V667.913c0-8.182-3.651-11.833-11.833-11.833H1353.929C1345.747,656.08,1342.1,659.732,1342.1,667.913Zm-156.866,91.637A16.276,16.276,0,0,1,1169,743.322V666.229A16.276,16.276,0,0,1,1185.229,650h113.59a16.276,16.276,0,0,1,16.229,16.23v77.092a16.276,16.276,0,0,1-16.229,16.229Zm-10.134-91.637v73.709c0,8.182,3.651,11.833,11.833,11.833h110.207c8.181,0,11.832-3.651,11.832-11.833V667.913c0-8.182-3.651-11.833-11.832-11.833H1186.928C1178.746,656.08,1175.095,659.732,1175.095,667.913Zm-156.866,91.637A16.276,16.276,0,0,1,1002,743.322V666.229a16.276,16.276,0,0,1,16.23-16.23h113.589a16.276,16.276,0,0,1,16.23,16.23v77.092a16.276,16.276,0,0,1-16.23,16.229ZM1008.1,667.913v73.709c0,8.182,3.651,11.833,11.832,11.833h110.207c8.182,0,11.833-3.651,11.833-11.833V667.913c0-8.182-3.651-11.833-11.833-11.833H1019.928C1011.747,656.08,1008.1,659.732,1008.1,667.913ZM851.229,759.551A16.275,16.275,0,0,1,835,743.322V666.229A16.276,16.276,0,0,1,851.229,650h113.59a16.276,16.276,0,0,1,16.229,16.23v77.092a16.276,16.276,0,0,1-16.229,16.229ZM841.1,667.913v73.709c0,8.182,3.651,11.833,11.833,11.833H963.134c8.182,0,11.833-3.651,11.833-11.833V667.913c0-8.182-3.651-11.833-11.833-11.833H852.928C844.746,656.08,841.1,659.732,841.1,667.913ZM684.229,759.551A16.276,16.276,0,0,1,668,743.322V666.229A16.276,16.276,0,0,1,684.229,650H797.819a16.276,16.276,0,0,1,16.229,16.23v77.092a16.275,16.275,0,0,1-16.229,16.229ZM674.1,667.913v73.709c0,8.182,3.651,11.833,11.832,11.833H796.135c8.182,0,11.832-3.651,11.832-11.833V667.913c0-8.182-3.65-11.833-11.832-11.833H685.928C677.747,656.08,674.1,659.732,674.1,667.913ZM517.229,759.551A16.275,16.275,0,0,1,501,743.322V666.229A16.276,16.276,0,0,1,517.229,650H630.818a16.276,16.276,0,0,1,16.23,16.23v77.092a16.276,16.276,0,0,1-16.23,16.229ZM507.1,667.913v73.709c0,8.182,3.651,11.833,11.833,11.833H629.134c8.182,0,11.833-3.651,11.833-11.833V667.913c0-8.182-3.651-11.833-11.833-11.833H518.928C510.746,656.08,507.1,659.732,507.1,667.913ZM350.23,759.551A16.276,16.276,0,0,1,334,743.322V666.229A16.276,16.276,0,0,1,350.23,650H463.819a16.276,16.276,0,0,1,16.229,16.23v77.092a16.275,16.275,0,0,1-16.229,16.229ZM340.1,667.913v73.709c0,8.182,3.651,11.833,11.832,11.833H462.135c8.182,0,11.832-3.651,11.832-11.833V667.913c0-8.182-3.65-11.833-11.832-11.833H351.928C343.747,656.08,340.1,659.732,340.1,667.913ZM183.229,759.551A16.275,16.275,0,0,1,167,743.322V666.229A16.276,16.276,0,0,1,183.229,650H296.818a16.276,16.276,0,0,1,16.23,16.23v77.092a16.276,16.276,0,0,1-16.23,16.229ZM173.1,667.913v73.709c0,8.182,3.651,11.833,11.833,11.833H295.134c8.182,0,11.833-3.651,11.833-11.833V667.913c0-8.182-3.651-11.833-11.833-11.833H184.928C176.747,656.08,173.1,659.732,173.1,667.913ZM16.229,759.551A16.276,16.276,0,0,1,0,743.322V666.229A16.276,16.276,0,0,1,16.229,650h113.59a16.276,16.276,0,0,1,16.229,16.23v77.092a16.276,16.276,0,0,1-16.229,16.229ZM6.1,667.913v73.709c0,8.182,3.65,11.833,11.832,11.833H128.135c8.181,0,11.832-3.651,11.832-11.833V667.913c0-8.182-3.651-11.833-11.832-11.833H17.928C9.746,656.08,6.1,659.732,6.1,667.913Zm1679.12,76.422V716.944l30.432-24.351,15.2,12.175L1770.4,671.3l30.432,27.391v45.648Zm-167,0V716.944l30.432-24.351,15.2,12.175L1603.4,671.3l30.432,27.391v45.648Zm-167,0V716.944l30.432-24.351,15.2,12.175L1436.4,671.3l30.432,27.391v45.648Zm-167,0V716.944l30.432-24.351,15.2,12.175L1269.4,671.3l30.432,27.391v45.648Zm-167,0V716.944l30.432-24.351,15.2,12.175L1102.4,671.3l30.432,27.391v45.648Zm-167,0V716.944l30.432-24.351,15.2,12.175L935.4,671.3l30.432,27.391v45.648Zm-167,0V716.944l30.431-24.351,15.2,12.175L768.4,671.3l30.432,27.391v45.648Zm-167,0V716.944l30.432-24.351,15.2,12.175L601.4,671.3l30.431,27.391v45.648Zm-167,0V716.944l30.431-24.351,15.2,12.175L434.4,671.3l30.432,27.391v45.648Zm-167,0V716.944l30.432-24.351,15.2,12.175L267.4,671.3l30.431,27.391v45.648Zm-167,0V716.944l30.432-24.351,15.2,12.175L100.4,671.3l30.432,27.391v45.648Zm1670-66.944a12.176,12.176,0,1,1,12.175,12.176A12.179,12.179,0,0,1,1685.216,677.391Zm-167,0a12.176,12.176,0,1,1,12.176,12.176A12.18,12.18,0,0,1,1518.215,677.391Zm-167,0a12.176,12.176,0,1,1,12.175,12.176A12.179,12.179,0,0,1,1351.216,677.391Zm-167,0a12.176,12.176,0,1,1,12.176,12.176A12.18,12.18,0,0,1,1184.216,677.391Zm-167,0a12.176,12.176,0,1,1,12.175,12.176A12.179,12.179,0,0,1,1017.216,677.391Zm-167,0a12.176,12.176,0,1,1,12.176,12.176A12.18,12.18,0,0,1,850.216,677.391Zm-167,0a12.176,12.176,0,1,1,12.175,12.176A12.179,12.179,0,0,1,683.216,677.391Zm-167,0a12.176,12.176,0,1,1,12.176,12.176A12.18,12.18,0,0,1,516.216,677.391Zm-167,0a12.175,12.175,0,1,1,12.175,12.176A12.179,12.179,0,0,1,349.216,677.391Zm-167,0a12.176,12.176,0,1,1,12.175,12.176A12.179,12.179,0,0,1,182.216,677.391Zm-167,0a12.176,12.176,0,1,1,12.176,12.176A12.18,12.18,0,0,1,15.215,677.391Zm1671.014-47.84A16.276,16.276,0,0,1,1670,613.321V536.229A16.275,16.275,0,0,1,1686.229,520h113.589a16.276,16.276,0,0,1,16.23,16.229v77.092a16.276,16.276,0,0,1-16.23,16.23ZM1676.1,537.913v73.71c0,8.181,3.651,11.832,11.833,11.832h110.206c8.182,0,11.833-3.651,11.833-11.832v-73.71c0-8.181-3.651-11.832-11.833-11.832H1687.928C1679.747,526.081,1676.1,529.732,1676.1,537.913Zm-156.866,91.638A16.276,16.276,0,0,1,1503,613.321V536.229A16.276,16.276,0,0,1,1519.229,520h113.59a16.276,16.276,0,0,1,16.229,16.229v77.092a16.276,16.276,0,0,1-16.229,16.23Zm-10.134-91.638v73.71c0,8.181,3.651,11.832,11.833,11.832h110.207c8.181,0,11.832-3.651,11.832-11.832v-73.71c0-8.181-3.651-11.832-11.832-11.832H1520.928C1512.746,526.081,1509.095,529.732,1509.095,537.913Zm-156.865,91.638a16.276,16.276,0,0,1-16.23-16.23V536.229A16.276,16.276,0,0,1,1352.229,520h113.589a16.276,16.276,0,0,1,16.23,16.229v77.092a16.276,16.276,0,0,1-16.23,16.23ZM1342.1,537.913v73.71c0,8.181,3.651,11.832,11.833,11.832h110.206c8.182,0,11.833-3.651,11.833-11.832v-73.71c0-8.181-3.651-11.832-11.833-11.832H1353.929C1345.747,526.081,1342.1,529.732,1342.1,537.913Zm-156.866,91.638A16.276,16.276,0,0,1,1169,613.321V536.229A16.276,16.276,0,0,1,1185.229,520h113.59a16.276,16.276,0,0,1,16.229,16.229v77.092a16.276,16.276,0,0,1-16.229,16.23Zm-10.134-91.638v73.71c0,8.181,3.651,11.832,11.833,11.832h110.207c8.181,0,11.832-3.651,11.832-11.832v-73.71c0-8.181-3.651-11.832-11.832-11.832H1186.928C1178.746,526.081,1175.095,529.732,1175.095,537.913Zm-156.866,91.638a16.276,16.276,0,0,1-16.23-16.23V536.229A16.276,16.276,0,0,1,1018.229,520h113.589a16.276,16.276,0,0,1,16.23,16.229v77.092a16.276,16.276,0,0,1-16.23,16.23ZM1008.1,537.913v73.71c0,8.181,3.651,11.832,11.832,11.832h110.207c8.182,0,11.833-3.651,11.833-11.832v-73.71c0-8.181-3.651-11.832-11.833-11.832H1019.928C1011.747,526.081,1008.1,529.732,1008.1,537.913ZM851.229,629.551A16.276,16.276,0,0,1,835,613.321V536.229A16.275,16.275,0,0,1,851.229,520h113.59a16.276,16.276,0,0,1,16.229,16.229v77.092a16.276,16.276,0,0,1-16.229,16.23ZM841.1,537.913v73.71c0,8.181,3.651,11.832,11.833,11.832H963.134c8.182,0,11.833-3.651,11.833-11.832v-73.71c0-8.181-3.651-11.832-11.833-11.832H852.928C844.746,526.081,841.1,529.732,841.1,537.913ZM684.229,629.551A16.276,16.276,0,0,1,668,613.321V536.229A16.276,16.276,0,0,1,684.229,520H797.819a16.275,16.275,0,0,1,16.229,16.229v77.092a16.276,16.276,0,0,1-16.229,16.23ZM674.1,537.913v73.71c0,8.181,3.651,11.832,11.832,11.832H796.135c8.182,0,11.832-3.651,11.832-11.832v-73.71c0-8.181-3.65-11.832-11.832-11.832H685.928C677.747,526.081,674.1,529.732,674.1,537.913ZM517.229,629.551A16.276,16.276,0,0,1,501,613.321V536.229A16.275,16.275,0,0,1,517.229,520H630.818a16.276,16.276,0,0,1,16.23,16.229v77.092a16.276,16.276,0,0,1-16.23,16.23ZM507.1,537.913v73.71c0,8.181,3.651,11.832,11.833,11.832H629.134c8.182,0,11.833-3.651,11.833-11.832v-73.71c0-8.181-3.651-11.832-11.833-11.832H518.928C510.746,526.081,507.1,529.732,507.1,537.913ZM350.23,629.551A16.276,16.276,0,0,1,334,613.321V536.229A16.276,16.276,0,0,1,350.23,520H463.819a16.275,16.275,0,0,1,16.229,16.229v77.092a16.276,16.276,0,0,1-16.229,16.23ZM340.1,537.913v73.71c0,8.181,3.651,11.832,11.832,11.832H462.135c8.182,0,11.832-3.651,11.832-11.832v-73.71c0-8.181-3.65-11.832-11.832-11.832H351.928C343.747,526.081,340.1,529.732,340.1,537.913ZM183.229,629.551A16.276,16.276,0,0,1,167,613.321V536.229A16.275,16.275,0,0,1,183.229,520H296.818a16.276,16.276,0,0,1,16.23,16.229v77.092a16.276,16.276,0,0,1-16.23,16.23ZM173.1,537.913v73.71c0,8.181,3.651,11.832,11.833,11.832H295.134c8.182,0,11.833-3.651,11.833-11.832v-73.71c0-8.181-3.651-11.832-11.833-11.832H184.928C176.747,526.081,173.1,529.732,173.1,537.913ZM16.229,629.551A16.276,16.276,0,0,1,0,613.321V536.229A16.276,16.276,0,0,1,16.229,520h113.59a16.276,16.276,0,0,1,16.229,16.229v77.092a16.276,16.276,0,0,1-16.229,16.23ZM6.1,537.913v73.71c0,8.181,3.65,11.832,11.832,11.832H128.135c8.181,0,11.832-3.651,11.832-11.832v-73.71c0-8.181-3.651-11.832-11.832-11.832H17.928C9.746,526.081,6.1,529.732,6.1,537.913Zm1679.12,76.422V586.943l30.432-24.35,15.2,12.175L1770.4,541.3l30.432,27.391v45.647Zm-167,0V586.943l30.432-24.35,15.2,12.175L1603.4,541.3l30.432,27.391v45.647Zm-167,0V586.943l30.432-24.35,15.2,12.175L1436.4,541.3l30.432,27.391v45.647Zm-167,0V586.943l30.432-24.35,15.2,12.175L1269.4,541.3l30.432,27.391v45.647Zm-167,0V586.943l30.432-24.35,15.2,12.175L1102.4,541.3l30.432,27.391v45.647Zm-167,0V586.943l30.432-24.35,15.2,12.175L935.4,541.3l30.432,27.391v45.647Zm-167,0V586.943l30.431-24.35,15.2,12.175L768.4,541.3l30.432,27.391v45.647Zm-167,0V586.943l30.432-24.35,15.2,12.175L601.4,541.3l30.431,27.391v45.647Zm-167,0V586.943l30.431-24.35,15.2,12.175L434.4,541.3l30.432,27.391v45.647Zm-167,0V586.943l30.432-24.35,15.2,12.175L267.4,541.3l30.431,27.391v45.647Zm-167,0V586.943l30.432-24.35,15.2,12.175L100.4,541.3l30.432,27.391v45.647Zm1670-66.943a12.176,12.176,0,1,1,12.175,12.175A12.18,12.18,0,0,1,1685.216,547.392Zm-167,0a12.176,12.176,0,1,1,12.176,12.175A12.18,12.18,0,0,1,1518.215,547.392Zm-167,0a12.176,12.176,0,1,1,12.175,12.175A12.18,12.18,0,0,1,1351.216,547.392Zm-167,0a12.176,12.176,0,1,1,12.176,12.175A12.18,12.18,0,0,1,1184.216,547.392Zm-167,0a12.176,12.176,0,1,1,12.175,12.175A12.18,12.18,0,0,1,1017.216,547.392Zm-167,0a12.176,12.176,0,1,1,12.176,12.175A12.181,12.181,0,0,1,850.216,547.392Zm-167,0a12.176,12.176,0,1,1,12.175,12.175A12.18,12.18,0,0,1,683.216,547.392Zm-167,0a12.176,12.176,0,1,1,12.176,12.175A12.181,12.181,0,0,1,516.216,547.392Zm-167,0a12.175,12.175,0,1,1,12.175,12.175A12.18,12.18,0,0,1,349.216,547.392Zm-167,0a12.176,12.176,0,1,1,12.175,12.175A12.18,12.18,0,0,1,182.216,547.392Zm-167,0a12.176,12.176,0,1,1,12.176,12.175A12.181,12.181,0,0,1,15.215,547.392ZM1686.229,499.55A16.275,16.275,0,0,1,1670,483.322V406.229A16.276,16.276,0,0,1,1686.229,390h113.589a16.276,16.276,0,0,1,16.23,16.23v77.092a16.276,16.276,0,0,1-16.23,16.229ZM1676.1,407.913v73.709c0,8.182,3.651,11.833,11.833,11.833h110.206c8.182,0,11.833-3.651,11.833-11.833V407.913c0-8.182-3.651-11.833-11.833-11.833H1687.928C1679.747,396.08,1676.1,399.731,1676.1,407.913ZM1519.229,499.55A16.275,16.275,0,0,1,1503,483.322V406.229A16.276,16.276,0,0,1,1519.229,390h113.59a16.276,16.276,0,0,1,16.229,16.23v77.092a16.275,16.275,0,0,1-16.229,16.229Zm-10.134-91.637v73.709c0,8.182,3.651,11.833,11.833,11.833h110.207c8.181,0,11.832-3.651,11.832-11.833V407.913c0-8.182-3.651-11.833-11.832-11.833H1520.928C1512.746,396.08,1509.095,399.731,1509.095,407.913ZM1352.229,499.55A16.276,16.276,0,0,1,1336,483.322V406.229a16.276,16.276,0,0,1,16.23-16.23h113.589a16.276,16.276,0,0,1,16.23,16.23v77.092a16.276,16.276,0,0,1-16.23,16.229ZM1342.1,407.913v73.709c0,8.182,3.651,11.833,11.833,11.833h110.206c8.182,0,11.833-3.651,11.833-11.833V407.913c0-8.182-3.651-11.833-11.833-11.833H1353.929C1345.747,396.08,1342.1,399.731,1342.1,407.913ZM1185.229,499.55A16.275,16.275,0,0,1,1169,483.322V406.229A16.276,16.276,0,0,1,1185.229,390h113.59a16.276,16.276,0,0,1,16.229,16.23v77.092a16.275,16.275,0,0,1-16.229,16.229Zm-10.134-91.637v73.709c0,8.182,3.651,11.833,11.833,11.833h110.207c8.181,0,11.832-3.651,11.832-11.833V407.913c0-8.182-3.651-11.833-11.832-11.833H1186.928C1178.746,396.08,1175.095,399.731,1175.095,407.913ZM1018.229,499.55A16.276,16.276,0,0,1,1002,483.322V406.229a16.276,16.276,0,0,1,16.23-16.23h113.589a16.276,16.276,0,0,1,16.23,16.23v77.092a16.276,16.276,0,0,1-16.23,16.229ZM1008.1,407.913v73.709c0,8.182,3.651,11.833,11.832,11.833h110.207c8.182,0,11.833-3.651,11.833-11.833V407.913c0-8.182-3.651-11.833-11.833-11.833H1019.928C1011.747,396.08,1008.1,399.731,1008.1,407.913ZM851.229,499.55A16.275,16.275,0,0,1,835,483.322V406.229A16.276,16.276,0,0,1,851.229,390h113.59a16.276,16.276,0,0,1,16.229,16.23v77.092a16.275,16.275,0,0,1-16.229,16.229ZM841.1,407.913v73.709c0,8.182,3.651,11.833,11.833,11.833H963.134c8.182,0,11.833-3.651,11.833-11.833V407.913c0-8.182-3.651-11.833-11.833-11.833H852.928C844.746,396.08,841.1,399.731,841.1,407.913ZM684.229,499.55A16.276,16.276,0,0,1,668,483.322V406.229A16.276,16.276,0,0,1,684.229,390H797.819a16.276,16.276,0,0,1,16.229,16.23v77.092a16.275,16.275,0,0,1-16.229,16.229ZM674.1,407.913v73.709c0,8.182,3.651,11.833,11.832,11.833H796.135c8.182,0,11.832-3.651,11.832-11.833V407.913c0-8.182-3.65-11.833-11.832-11.833H685.928C677.747,396.08,674.1,399.731,674.1,407.913ZM517.229,499.55A16.275,16.275,0,0,1,501,483.322V406.229A16.276,16.276,0,0,1,517.229,390H630.818a16.276,16.276,0,0,1,16.23,16.23v77.092a16.276,16.276,0,0,1-16.23,16.229ZM507.1,407.913v73.709c0,8.182,3.651,11.833,11.833,11.833H629.134c8.182,0,11.833-3.651,11.833-11.833V407.913c0-8.182-3.651-11.833-11.833-11.833H518.928C510.746,396.08,507.1,399.731,507.1,407.913ZM350.23,499.55A16.276,16.276,0,0,1,334,483.322V406.229A16.276,16.276,0,0,1,350.23,390H463.819a16.276,16.276,0,0,1,16.229,16.23v77.092a16.275,16.275,0,0,1-16.229,16.229ZM340.1,407.913v73.709c0,8.182,3.651,11.833,11.832,11.833H462.135c8.182,0,11.832-3.651,11.832-11.833V407.913c0-8.182-3.65-11.833-11.832-11.833H351.928C343.747,396.08,340.1,399.731,340.1,407.913ZM183.229,499.55A16.275,16.275,0,0,1,167,483.322V406.229A16.276,16.276,0,0,1,183.229,390H296.818a16.276,16.276,0,0,1,16.23,16.23v77.092a16.276,16.276,0,0,1-16.23,16.229ZM173.1,407.913v73.709c0,8.182,3.651,11.833,11.833,11.833H295.134c8.182,0,11.833-3.651,11.833-11.833V407.913c0-8.182-3.651-11.833-11.833-11.833H184.928C176.747,396.08,173.1,399.731,173.1,407.913ZM16.229,499.55A16.275,16.275,0,0,1,0,483.322V406.229A16.276,16.276,0,0,1,16.229,390h113.59a16.276,16.276,0,0,1,16.229,16.23v77.092a16.275,16.275,0,0,1-16.229,16.229ZM6.1,407.913v73.709c0,8.182,3.65,11.833,11.832,11.833H128.135c8.181,0,11.832-3.651,11.832-11.833V407.913c0-8.182-3.651-11.833-11.832-11.833H17.928C9.746,396.08,6.1,399.731,6.1,407.913Zm1679.12,76.422V456.944l30.432-24.351,15.2,12.176L1770.4,411.3l30.432,27.391v45.647Zm-167,0V456.944l30.432-24.351,15.2,12.176L1603.4,411.3l30.432,27.391v45.647Zm-167,0V456.944l30.432-24.351,15.2,12.176L1436.4,411.3l30.432,27.391v45.647Zm-167,0V456.944l30.432-24.351,15.2,12.176L1269.4,411.3l30.432,27.391v45.647Zm-167,0V456.944l30.432-24.351,15.2,12.176L1102.4,411.3l30.432,27.391v45.647Zm-167,0V456.944l30.432-24.351,15.2,12.176L935.4,411.3l30.432,27.391v45.647Zm-167,0V456.944l30.431-24.351,15.2,12.176L768.4,411.3l30.432,27.391v45.647Zm-167,0V456.944l30.432-24.351,15.2,12.176L601.4,411.3l30.431,27.391v45.647Zm-167,0V456.944l30.431-24.351,15.2,12.176L434.4,411.3l30.432,27.391v45.647Zm-167,0V456.944l30.432-24.351,15.2,12.176L267.4,411.3l30.431,27.391v45.647Zm-167,0V456.944l30.432-24.351,15.2,12.176L100.4,411.3l30.432,27.391v45.647Zm1670-66.944a12.176,12.176,0,1,1,12.175,12.176A12.179,12.179,0,0,1,1685.216,417.391Zm-167,0a12.176,12.176,0,1,1,12.176,12.176A12.18,12.18,0,0,1,1518.215,417.391Zm-167,0a12.176,12.176,0,1,1,12.175,12.176A12.179,12.179,0,0,1,1351.216,417.391Zm-167,0a12.176,12.176,0,1,1,12.176,12.176A12.18,12.18,0,0,1,1184.216,417.391Zm-167,0a12.176,12.176,0,1,1,12.175,12.176A12.179,12.179,0,0,1,1017.216,417.391Zm-167,0a12.176,12.176,0,1,1,12.176,12.176A12.18,12.18,0,0,1,850.216,417.391Zm-167,0a12.176,12.176,0,1,1,12.175,12.176A12.179,12.179,0,0,1,683.216,417.391Zm-167,0a12.176,12.176,0,1,1,12.176,12.176A12.18,12.18,0,0,1,516.216,417.391Zm-167,0a12.175,12.175,0,1,1,12.175,12.176A12.179,12.179,0,0,1,349.216,417.391Zm-167,0a12.176,12.176,0,1,1,12.175,12.176A12.179,12.179,0,0,1,182.216,417.391Zm-167,0a12.176,12.176,0,1,1,12.176,12.176A12.18,12.18,0,0,1,15.215,417.391Zm1671.014-47.84A16.276,16.276,0,0,1,1670,353.321V276.229A16.275,16.275,0,0,1,1686.229,260h113.589a16.276,16.276,0,0,1,16.23,16.229v77.092a16.276,16.276,0,0,1-16.23,16.23ZM1676.1,277.913v73.71c0,8.181,3.651,11.832,11.833,11.832h110.206c8.182,0,11.833-3.651,11.833-11.832v-73.71c0-8.181-3.651-11.832-11.833-11.832H1687.928C1679.747,266.081,1676.1,269.732,1676.1,277.913Zm-156.866,91.638A16.276,16.276,0,0,1,1503,353.321V276.229A16.276,16.276,0,0,1,1519.229,260h113.59a16.276,16.276,0,0,1,16.229,16.229v77.092a16.276,16.276,0,0,1-16.229,16.23Zm-10.134-91.638v73.71c0,8.181,3.651,11.832,11.833,11.832h110.207c8.181,0,11.832-3.651,11.832-11.832v-73.71c0-8.181-3.651-11.832-11.832-11.832H1520.928C1512.746,266.081,1509.095,269.732,1509.095,277.913Zm-156.865,91.638a16.276,16.276,0,0,1-16.23-16.23V276.229A16.276,16.276,0,0,1,1352.229,260h113.589a16.276,16.276,0,0,1,16.23,16.229v77.092a16.276,16.276,0,0,1-16.23,16.23ZM1342.1,277.913v73.71c0,8.181,3.651,11.832,11.833,11.832h110.206c8.182,0,11.833-3.651,11.833-11.832v-73.71c0-8.181-3.651-11.832-11.833-11.832H1353.929C1345.747,266.081,1342.1,269.732,1342.1,277.913Zm-156.866,91.638A16.276,16.276,0,0,1,1169,353.321V276.229A16.276,16.276,0,0,1,1185.229,260h113.59a16.276,16.276,0,0,1,16.229,16.229v77.092a16.276,16.276,0,0,1-16.229,16.23Zm-10.134-91.638v73.71c0,8.181,3.651,11.832,11.833,11.832h110.207c8.181,0,11.832-3.651,11.832-11.832v-73.71c0-8.181-3.651-11.832-11.832-11.832H1186.928C1178.746,266.081,1175.095,269.732,1175.095,277.913Zm-156.866,91.638a16.276,16.276,0,0,1-16.23-16.23V276.229A16.276,16.276,0,0,1,1018.229,260h113.589a16.276,16.276,0,0,1,16.23,16.229v77.092a16.276,16.276,0,0,1-16.23,16.23ZM1008.1,277.913v73.71c0,8.181,3.651,11.832,11.832,11.832h110.207c8.182,0,11.833-3.651,11.833-11.832v-73.71c0-8.181-3.651-11.832-11.833-11.832H1019.928C1011.747,266.081,1008.1,269.732,1008.1,277.913ZM851.229,369.551A16.276,16.276,0,0,1,835,353.321V276.229A16.275,16.275,0,0,1,851.229,260h113.59a16.276,16.276,0,0,1,16.229,16.229v77.092a16.276,16.276,0,0,1-16.229,16.23ZM841.1,277.913v73.71c0,8.181,3.651,11.832,11.833,11.832H963.134c8.182,0,11.833-3.651,11.833-11.832v-73.71c0-8.181-3.651-11.832-11.833-11.832H852.928C844.746,266.081,841.1,269.732,841.1,277.913ZM684.229,369.551A16.276,16.276,0,0,1,668,353.321V276.229A16.276,16.276,0,0,1,684.229,260H797.819a16.275,16.275,0,0,1,16.229,16.229v77.092a16.276,16.276,0,0,1-16.229,16.23ZM674.1,277.913v73.71c0,8.181,3.651,11.832,11.832,11.832H796.135c8.182,0,11.832-3.651,11.832-11.832v-73.71c0-8.181-3.65-11.832-11.832-11.832H685.928C677.747,266.081,674.1,269.732,674.1,277.913ZM517.229,369.551A16.276,16.276,0,0,1,501,353.321V276.229A16.275,16.275,0,0,1,517.229,260H630.818a16.276,16.276,0,0,1,16.23,16.229v77.092a16.276,16.276,0,0,1-16.23,16.23ZM507.1,277.913v73.71c0,8.181,3.651,11.832,11.833,11.832H629.134c8.182,0,11.833-3.651,11.833-11.832v-73.71c0-8.181-3.651-11.832-11.833-11.832H518.928C510.746,266.081,507.1,269.732,507.1,277.913ZM350.23,369.551A16.276,16.276,0,0,1,334,353.321V276.229A16.276,16.276,0,0,1,350.23,260H463.819a16.275,16.275,0,0,1,16.229,16.229v77.092a16.276,16.276,0,0,1-16.229,16.23ZM340.1,277.913v73.71c0,8.181,3.651,11.832,11.832,11.832H462.135c8.182,0,11.832-3.651,11.832-11.832v-73.71c0-8.181-3.65-11.832-11.832-11.832H351.928C343.747,266.081,340.1,269.732,340.1,277.913ZM183.229,369.551A16.276,16.276,0,0,1,167,353.321V276.229A16.275,16.275,0,0,1,183.229,260H296.818a16.276,16.276,0,0,1,16.23,16.229v77.092a16.276,16.276,0,0,1-16.23,16.23ZM173.1,277.913v73.71c0,8.181,3.651,11.832,11.833,11.832H295.134c8.182,0,11.833-3.651,11.833-11.832v-73.71c0-8.181-3.651-11.832-11.833-11.832H184.928C176.747,266.081,173.1,269.732,173.1,277.913ZM16.229,369.551A16.276,16.276,0,0,1,0,353.321V276.229A16.276,16.276,0,0,1,16.229,260h113.59a16.276,16.276,0,0,1,16.229,16.229v77.092a16.276,16.276,0,0,1-16.229,16.23ZM6.1,277.913v73.71c0,8.181,3.65,11.832,11.832,11.832H128.135c8.181,0,11.832-3.651,11.832-11.832v-73.71c0-8.181-3.651-11.832-11.832-11.832H17.928C9.746,266.081,6.1,269.732,6.1,277.913Zm1679.12,76.422V326.944l30.432-24.351,15.2,12.175L1770.4,281.3l30.432,27.392v45.647Zm-167,0V326.944l30.432-24.351,15.2,12.175L1603.4,281.3l30.432,27.392v45.647Zm-167,0V326.944l30.432-24.351,15.2,12.175L1436.4,281.3l30.432,27.392v45.647Zm-167,0V326.944l30.432-24.351,15.2,12.175L1269.4,281.3l30.432,27.392v45.647Zm-167,0V326.944l30.432-24.351,15.2,12.175L1102.4,281.3l30.432,27.392v45.647Zm-167,0V326.944l30.432-24.351,15.2,12.175L935.4,281.3l30.432,27.392v45.647Zm-167,0V326.944l30.431-24.351,15.2,12.175L768.4,281.3l30.432,27.392v45.647Zm-167,0V326.944l30.432-24.351,15.2,12.175L601.4,281.3l30.431,27.392v45.647Zm-167,0V326.944l30.431-24.351,15.2,12.175L434.4,281.3l30.432,27.392v45.647Zm-167,0V326.944l30.432-24.351,15.2,12.175L267.4,281.3l30.431,27.392v45.647Zm-167,0V326.944l30.432-24.351,15.2,12.175L100.4,281.3l30.432,27.392v45.647Zm1670-66.943a12.176,12.176,0,1,1,12.175,12.175A12.18,12.18,0,0,1,1685.216,287.392Zm-167,0a12.176,12.176,0,1,1,12.176,12.175A12.18,12.18,0,0,1,1518.215,287.392Zm-167,0a12.176,12.176,0,1,1,12.175,12.175A12.18,12.18,0,0,1,1351.216,287.392Zm-167,0a12.176,12.176,0,1,1,12.176,12.175A12.18,12.18,0,0,1,1184.216,287.392Zm-167,0a12.176,12.176,0,1,1,12.175,12.175A12.18,12.18,0,0,1,1017.216,287.392Zm-167,0a12.176,12.176,0,1,1,12.176,12.175A12.181,12.181,0,0,1,850.216,287.392Zm-167,0a12.176,12.176,0,1,1,12.175,12.175A12.18,12.18,0,0,1,683.216,287.392Zm-167,0a12.176,12.176,0,1,1,12.176,12.175A12.181,12.181,0,0,1,516.216,287.392Zm-167,0a12.175,12.175,0,1,1,12.175,12.175A12.18,12.18,0,0,1,349.216,287.392Zm-167,0a12.176,12.176,0,1,1,12.175,12.175A12.18,12.18,0,0,1,182.216,287.392Zm-167,0a12.176,12.176,0,1,1,12.176,12.175A12.181,12.181,0,0,1,15.215,287.392ZM1686.229,239.55A16.275,16.275,0,0,1,1670,223.322V146.229A16.276,16.276,0,0,1,1686.229,130h113.589a16.276,16.276,0,0,1,16.23,16.23v77.092a16.276,16.276,0,0,1-16.23,16.229ZM1676.1,147.913v73.709c0,8.182,3.651,11.833,11.833,11.833h110.206c8.182,0,11.833-3.651,11.833-11.833V147.913c0-8.182-3.651-11.833-11.833-11.833H1687.928C1679.747,136.08,1676.1,139.731,1676.1,147.913ZM1519.229,239.55A16.275,16.275,0,0,1,1503,223.322V146.229A16.276,16.276,0,0,1,1519.229,130h113.59a16.276,16.276,0,0,1,16.229,16.23v77.092a16.275,16.275,0,0,1-16.229,16.229Zm-10.134-91.637v73.709c0,8.182,3.651,11.833,11.833,11.833h110.207c8.181,0,11.832-3.651,11.832-11.833V147.913c0-8.182-3.651-11.833-11.832-11.833H1520.928C1512.746,136.08,1509.095,139.731,1509.095,147.913ZM1352.229,239.55A16.276,16.276,0,0,1,1336,223.322V146.229a16.276,16.276,0,0,1,16.23-16.23h113.589a16.276,16.276,0,0,1,16.23,16.23v77.092a16.276,16.276,0,0,1-16.23,16.229ZM1342.1,147.913v73.709c0,8.182,3.651,11.833,11.833,11.833h110.206c8.182,0,11.833-3.651,11.833-11.833V147.913c0-8.182-3.651-11.833-11.833-11.833H1353.929C1345.747,136.08,1342.1,139.731,1342.1,147.913ZM1185.229,239.55A16.275,16.275,0,0,1,1169,223.322V146.229A16.276,16.276,0,0,1,1185.229,130h113.59a16.276,16.276,0,0,1,16.229,16.23v77.092a16.275,16.275,0,0,1-16.229,16.229Zm-10.134-91.637v73.709c0,8.182,3.651,11.833,11.833,11.833h110.207c8.181,0,11.832-3.651,11.832-11.833V147.913c0-8.182-3.651-11.833-11.832-11.833H1186.928C1178.746,136.08,1175.095,139.731,1175.095,147.913ZM1018.229,239.55A16.276,16.276,0,0,1,1002,223.322V146.229a16.276,16.276,0,0,1,16.23-16.23h113.589a16.276,16.276,0,0,1,16.23,16.23v77.092a16.276,16.276,0,0,1-16.23,16.229ZM1008.1,147.913v73.709c0,8.182,3.651,11.833,11.832,11.833h110.207c8.182,0,11.833-3.651,11.833-11.833V147.913c0-8.182-3.651-11.833-11.833-11.833H1019.928C1011.747,136.08,1008.1,139.731,1008.1,147.913ZM851.229,239.55A16.275,16.275,0,0,1,835,223.322V146.229A16.276,16.276,0,0,1,851.229,130h113.59a16.276,16.276,0,0,1,16.229,16.23v77.092a16.275,16.275,0,0,1-16.229,16.229ZM841.1,147.913v73.709c0,8.182,3.651,11.833,11.833,11.833H963.134c8.182,0,11.833-3.651,11.833-11.833V147.913c0-8.182-3.651-11.833-11.833-11.833H852.928C844.746,136.08,841.1,139.731,841.1,147.913ZM684.229,239.55A16.276,16.276,0,0,1,668,223.322V146.229A16.276,16.276,0,0,1,684.229,130H797.819a16.276,16.276,0,0,1,16.229,16.23v77.092a16.275,16.275,0,0,1-16.229,16.229ZM674.1,147.913v73.709c0,8.182,3.651,11.833,11.832,11.833H796.135c8.182,0,11.832-3.651,11.832-11.833V147.913c0-8.182-3.65-11.833-11.832-11.833H685.928C677.747,136.08,674.1,139.731,674.1,147.913ZM517.229,239.55A16.275,16.275,0,0,1,501,223.322V146.229A16.276,16.276,0,0,1,517.229,130H630.818a16.276,16.276,0,0,1,16.23,16.23v77.092a16.276,16.276,0,0,1-16.23,16.229ZM507.1,147.913v73.709c0,8.182,3.651,11.833,11.833,11.833H629.134c8.182,0,11.833-3.651,11.833-11.833V147.913c0-8.182-3.651-11.833-11.833-11.833H518.928C510.746,136.08,507.1,139.731,507.1,147.913ZM350.23,239.55A16.276,16.276,0,0,1,334,223.322V146.229A16.276,16.276,0,0,1,350.23,130H463.819a16.276,16.276,0,0,1,16.229,16.23v77.092a16.275,16.275,0,0,1-16.229,16.229ZM340.1,147.913v73.709c0,8.182,3.651,11.833,11.832,11.833H462.135c8.182,0,11.832-3.651,11.832-11.833V147.913c0-8.182-3.65-11.833-11.832-11.833H351.928C343.747,136.08,340.1,139.731,340.1,147.913ZM183.229,239.55A16.275,16.275,0,0,1,167,223.322V146.229A16.276,16.276,0,0,1,183.229,130H296.818a16.276,16.276,0,0,1,16.23,16.23v77.092a16.276,16.276,0,0,1-16.23,16.229ZM173.1,147.913v73.709c0,8.182,3.651,11.833,11.833,11.833H295.134c8.182,0,11.833-3.651,11.833-11.833V147.913c0-8.182-3.651-11.833-11.833-11.833H184.928C176.747,136.08,173.1,139.731,173.1,147.913ZM16.229,239.55A16.275,16.275,0,0,1,0,223.322V146.229A16.276,16.276,0,0,1,16.229,130h113.59a16.276,16.276,0,0,1,16.229,16.23v77.092a16.275,16.275,0,0,1-16.229,16.229ZM6.1,147.913v73.709c0,8.182,3.65,11.833,11.832,11.833H128.135c8.181,0,11.832-3.651,11.832-11.833V147.913c0-8.182-3.651-11.833-11.832-11.833H17.928C9.746,136.08,6.1,139.731,6.1,147.913Zm1679.12,76.422V196.943l30.432-24.351,15.2,12.176L1770.4,151.3l30.432,27.391v45.647Zm-167,0V196.943l30.432-24.351,15.2,12.176L1603.4,151.3l30.432,27.391v45.647Zm-167,0V196.943l30.432-24.351,15.2,12.176L1436.4,151.3l30.432,27.391v45.647Zm-167,0V196.943l30.432-24.351,15.2,12.176L1269.4,151.3l30.432,27.391v45.647Zm-167,0V196.943l30.432-24.351,15.2,12.176L1102.4,151.3l30.432,27.391v45.647Zm-167,0V196.943l30.432-24.351,15.2,12.176L935.4,151.3l30.432,27.391v45.647Zm-167,0V196.943l30.431-24.351,15.2,12.176L768.4,151.3l30.432,27.391v45.647Zm-167,0V196.943l30.432-24.351,15.2,12.176L601.4,151.3l30.431,27.391v45.647Zm-167,0V196.943l30.431-24.351,15.2,12.176L434.4,151.3l30.432,27.391v45.647Zm-167,0V196.943l30.432-24.351,15.2,12.176L267.4,151.3l30.431,27.391v45.647Zm-167,0V196.943l30.432-24.351,15.2,12.176L100.4,151.3l30.432,27.391v45.647Zm1670-66.944a12.176,12.176,0,1,1,12.175,12.176A12.179,12.179,0,0,1,1685.216,157.391Zm-167,0a12.176,12.176,0,1,1,12.176,12.176A12.18,12.18,0,0,1,1518.215,157.391Zm-167,0a12.176,12.176,0,1,1,12.175,12.176A12.179,12.179,0,0,1,1351.216,157.391Zm-167,0a12.176,12.176,0,1,1,12.176,12.176A12.18,12.18,0,0,1,1184.216,157.391Zm-167,0a12.176,12.176,0,1,1,12.175,12.176A12.179,12.179,0,0,1,1017.216,157.391Zm-167,0a12.176,12.176,0,1,1,12.176,12.176A12.18,12.18,0,0,1,850.216,157.391Zm-167,0a12.176,12.176,0,1,1,12.175,12.176A12.179,12.179,0,0,1,683.216,157.391Zm-167,0a12.176,12.176,0,1,1,12.176,12.176A12.18,12.18,0,0,1,516.216,157.391Zm-167,0a12.175,12.175,0,1,1,12.175,12.176A12.179,12.179,0,0,1,349.216,157.391Zm-167,0a12.176,12.176,0,1,1,12.175,12.176A12.179,12.179,0,0,1,182.216,157.391Zm-167,0a12.176,12.176,0,1,1,12.176,12.176A12.18,12.18,0,0,1,15.215,157.391Zm1671.014-47.84A16.275,16.275,0,0,1,1670,93.322V16.229A16.275,16.275,0,0,1,1686.229,0h113.589a16.276,16.276,0,0,1,16.23,16.229V93.322a16.276,16.276,0,0,1-16.23,16.229ZM1676.1,17.914V91.623c0,8.182,3.651,11.832,11.833,11.832h110.206c8.182,0,11.833-3.65,11.833-11.832V17.914c0-8.182-3.651-11.833-11.833-11.833H1687.928C1679.747,6.08,1676.1,9.732,1676.1,17.914Zm-156.866,91.637A16.276,16.276,0,0,1,1503,93.322V16.229A16.276,16.276,0,0,1,1519.229,0h113.59a16.276,16.276,0,0,1,16.229,16.229V93.322a16.276,16.276,0,0,1-16.229,16.229Zm-10.134-91.637V91.623c0,8.182,3.651,11.832,11.833,11.832h110.207c8.181,0,11.832-3.65,11.832-11.832V17.914c0-8.182-3.651-11.833-11.832-11.833H1520.928C1512.746,6.08,1509.095,9.732,1509.095,17.914Zm-156.865,91.637A16.276,16.276,0,0,1,1336,93.322V16.229A16.276,16.276,0,0,1,1352.229,0h113.589a16.276,16.276,0,0,1,16.23,16.229V93.322a16.276,16.276,0,0,1-16.23,16.229ZM1342.1,17.914V91.623c0,8.182,3.651,11.832,11.833,11.832h110.206c8.182,0,11.833-3.65,11.833-11.832V17.914c0-8.182-3.651-11.833-11.833-11.833H1353.929C1345.747,6.08,1342.1,9.732,1342.1,17.914Zm-156.866,91.637A16.276,16.276,0,0,1,1169,93.322V16.229A16.276,16.276,0,0,1,1185.229,0h113.59a16.276,16.276,0,0,1,16.229,16.229V93.322a16.276,16.276,0,0,1-16.229,16.229Zm-10.134-91.637V91.623c0,8.182,3.651,11.832,11.833,11.832h110.207c8.181,0,11.832-3.65,11.832-11.832V17.914c0-8.182-3.651-11.833-11.832-11.833H1186.928C1178.746,6.08,1175.095,9.732,1175.095,17.914Zm-156.866,91.637A16.276,16.276,0,0,1,1002,93.322V16.229A16.276,16.276,0,0,1,1018.229,0h113.589a16.276,16.276,0,0,1,16.23,16.229V93.322a16.276,16.276,0,0,1-16.23,16.229ZM1008.1,17.914V91.623c0,8.182,3.651,11.832,11.832,11.832h110.207c8.182,0,11.833-3.65,11.833-11.832V17.914c0-8.182-3.651-11.833-11.833-11.833H1019.928C1011.747,6.08,1008.1,9.732,1008.1,17.914ZM851.229,109.551A16.275,16.275,0,0,1,835,93.322V16.229A16.275,16.275,0,0,1,851.229,0h113.59a16.276,16.276,0,0,1,16.229,16.229V93.322a16.276,16.276,0,0,1-16.229,16.229ZM841.1,17.914V91.623c0,8.182,3.651,11.832,11.833,11.832H963.134c8.182,0,11.833-3.65,11.833-11.832V17.914c0-8.182-3.651-11.833-11.833-11.833H852.928C844.746,6.08,841.1,9.732,841.1,17.914ZM684.229,109.551A16.276,16.276,0,0,1,668,93.322V16.229A16.276,16.276,0,0,1,684.229,0H797.819a16.275,16.275,0,0,1,16.229,16.229V93.322a16.275,16.275,0,0,1-16.229,16.229ZM674.1,17.914V91.623c0,8.182,3.651,11.832,11.832,11.832H796.135c8.182,0,11.832-3.65,11.832-11.832V17.914c0-8.182-3.65-11.833-11.832-11.833H685.928C677.747,6.08,674.1,9.732,674.1,17.914ZM517.229,109.551A16.275,16.275,0,0,1,501,93.322V16.229A16.275,16.275,0,0,1,517.229,0H630.818a16.276,16.276,0,0,1,16.23,16.229V93.322a16.276,16.276,0,0,1-16.23,16.229ZM507.1,17.914V91.623c0,8.182,3.651,11.832,11.833,11.832H629.134c8.182,0,11.833-3.65,11.833-11.832V17.914c0-8.182-3.651-11.833-11.833-11.833H518.928C510.746,6.08,507.1,9.732,507.1,17.914ZM350.23,109.551A16.276,16.276,0,0,1,334,93.322V16.229A16.276,16.276,0,0,1,350.23,0H463.819a16.275,16.275,0,0,1,16.229,16.229V93.322a16.275,16.275,0,0,1-16.229,16.229ZM340.1,17.914V91.623c0,8.182,3.651,11.832,11.832,11.832H462.135c8.182,0,11.832-3.65,11.832-11.832V17.914c0-8.182-3.65-11.833-11.832-11.833H351.928C343.747,6.08,340.1,9.732,340.1,17.914ZM183.229,109.551A16.275,16.275,0,0,1,167,93.322V16.229A16.275,16.275,0,0,1,183.229,0H296.818a16.276,16.276,0,0,1,16.23,16.229V93.322a16.276,16.276,0,0,1-16.23,16.229ZM173.1,17.914V91.623c0,8.182,3.651,11.832,11.833,11.832H295.134c8.182,0,11.833-3.65,11.833-11.832V17.914c0-8.182-3.651-11.833-11.833-11.833H184.928C176.747,6.08,173.1,9.732,173.1,17.914ZM16.229,109.551A16.276,16.276,0,0,1,0,93.322V16.229A16.276,16.276,0,0,1,16.229,0h113.59a16.276,16.276,0,0,1,16.229,16.229V93.322a16.276,16.276,0,0,1-16.229,16.229ZM6.1,17.914V91.623c0,8.182,3.65,11.832,11.832,11.832H128.135c8.181,0,11.832-3.65,11.832-11.832V17.914c0-8.182-3.651-11.833-11.832-11.833H17.928C9.746,6.08,6.1,9.732,6.1,17.914Zm1679.12,76.422V66.944l30.432-24.351,15.2,12.175L1770.4,21.3l30.432,27.392V94.335Zm-167,0V66.944l30.432-24.351,15.2,12.175L1603.4,21.3l30.432,27.392V94.335Zm-167,0V66.944l30.432-24.351,15.2,12.175L1436.4,21.3l30.432,27.392V94.335Zm-167,0V66.944l30.432-24.351,15.2,12.175L1269.4,21.3l30.432,27.392V94.335Zm-167,0V66.944l30.432-24.351,15.2,12.175L1102.4,21.3l30.432,27.392V94.335Zm-167,0V66.944l30.432-24.351,15.2,12.175L935.4,21.3l30.432,27.392V94.335Zm-167,0V66.944l30.431-24.351,15.2,12.175L768.4,21.3l30.432,27.392V94.335Zm-167,0V66.944l30.432-24.351,15.2,12.175L601.4,21.3l30.431,27.392V94.335Zm-167,0V66.944l30.431-24.351,15.2,12.175L434.4,21.3l30.432,27.392V94.335Zm-167,0V66.944l30.432-24.351,15.2,12.175L267.4,21.3l30.431,27.392V94.335Zm-167,0V66.944L45.647,42.593l15.2,12.175L100.4,21.3l30.432,27.392V94.335Zm1670-66.944a12.176,12.176,0,1,1,12.175,12.175A12.18,12.18,0,0,1,1685.216,27.392Zm-167,0a12.176,12.176,0,1,1,12.176,12.175A12.18,12.18,0,0,1,1518.215,27.392Zm-167,0a12.176,12.176,0,1,1,12.175,12.175A12.18,12.18,0,0,1,1351.216,27.392Zm-167,0a12.176,12.176,0,1,1,12.176,12.175A12.18,12.18,0,0,1,1184.216,27.392Zm-167,0a12.176,12.176,0,1,1,12.175,12.175A12.18,12.18,0,0,1,1017.216,27.392Zm-167,0a12.176,12.176,0,1,1,12.176,12.175A12.181,12.181,0,0,1,850.216,27.392Zm-167,0a12.176,12.176,0,1,1,12.175,12.175A12.18,12.18,0,0,1,683.216,27.392Zm-167,0a12.176,12.176,0,1,1,12.176,12.175A12.181,12.181,0,0,1,516.216,27.392Zm-167,0a12.175,12.175,0,1,1,12.175,12.175A12.18,12.18,0,0,1,349.216,27.392Zm-167,0a12.176,12.176,0,1,1,12.175,12.175A12.18,12.18,0,0,1,182.216,27.392Zm-167,0A12.176,12.176,0,1,1,27.392,39.567,12.181,12.181,0,0,1,15.215,27.392Z" transform="translate(46 29)" fill="url(#radial-gradient)"/>
    </g>
  </g>
</svg>
