<svg xmlns="http://www.w3.org/2000/svg" xmlns:xlink="http://www.w3.org/1999/xlink" width="591.944" height="663.088" viewBox="0 0 591.944 663.088">
  <defs>
    <linearGradient id="linear-gradient" x1="-0.028" y1="0.32" x2="1" y2="0.676" gradientUnits="objectBoundingBox">
      <stop offset="0" stop-color="#2298bd"/>
      <stop offset="1" stop-color="#0ed7b5"/>
    </linearGradient>
  </defs>
  <g id="Group_3" data-name="Group 3" transform="translate(-457.631 -387.715)">
    <path id="Path_3" data-name="Path 3" d="M338.9,0c-19.882,0-38.124,2.187-54.91,6.61Q195.975,29.8,169.448,135.559q50.835-67.779,118.614-50.835c25.781,6.445,44.208,25.149,64.6,45.853,33.227,33.727,71.683,72.761,155.678,72.761q135.559,0,169.448-135.559-50.835,67.779-118.614,50.835c-25.781-6.445-44.208-25.149-64.605-45.853C461.348,39.035,422.892,0,338.9,0Z" transform="matrix(0.259, 0.966, -0.966, 0.259, 610.184, 287.169)" fill="url(#linear-gradient)"/>
    <path id="Path_5" data-name="Path 5" d="M169.448,0c-19.882,0-38.124,2.187-54.91,6.61Q26.527,29.8,0,135.559,50.835,67.779,118.614,84.724c25.781,6.445,44.208,25.149,64.6,45.853C216.446,164.3,254.9,203.338,338.9,203.338q135.559,0,169.448-135.559-50.835,67.779-118.614,50.835c-25.781-6.445-44.208-25.149-64.605-45.853C291.9,39.035,253.443,0,169.448,0Z" transform="translate(609.336 620.535) rotate(30)" fill="url(#linear-gradient)"/>
    <path id="Path_6" data-name="Path 6" d="M169.448,0c-19.882,0-38.124,2.187-54.91,6.61C55.864,22.069-2.327,70.666-19.95,141.156,13.94,95.97,73.428,73.428,118.614,84.724c25.781,6.445,44.208,25.149,64.6,45.853C216.446,164.3,254.9,203.338,338.9,203.338q135.559,0,169.448-135.559-50.835,67.779-118.614,50.834c-25.781-6.445-44.208-25.149-64.605-45.853C291.9,39.035,253.443,0,169.448,0Z" transform="translate(479.487 827.955) rotate(-60)" fill="url(#linear-gradient)"/>
  </g>
</svg>
