<svg xmlns="http://www.w3.org/2000/svg" xmlns:xlink="http://www.w3.org/1999/xlink" width="1026.969" height="419.846" viewBox="0 0 1026.969 419.846">
  <defs>
    <linearGradient id="linear-gradient" x1="1" y1="0.5" x2="0" y2="0.5" gradientUnits="objectBoundingBox">
      <stop offset="0" stop-color="#3555ce" stop-opacity="0"/>
      <stop offset="0.003" stop-color="#3555ce" stop-opacity="0"/>
      <stop offset="1" stop-color="#38b2ac"/>
    </linearGradient>
    <linearGradient id="linear-gradient-2" x1="1" y1="0.5" x2="0" y2="0.5" gradientUnits="objectBoundingBox">
      <stop offset="0" stop-color="#3555ce" stop-opacity="0"/>
      <stop offset="0.205" stop-color="#344ad8" stop-opacity="0"/>
      <stop offset="1" stop-color="#238984"/>
    </linearGradient>
    <linearGradient id="linear-gradient-3" x1="1" y1="0.5" x2="0" y2="0.5" gradientUnits="objectBoundingBox">
      <stop offset="0" stop-color="#3555ce" stop-opacity="0"/>
      <stop offset="0.497" stop-color="#333be6" stop-opacity="0"/>
      <stop offset="1" stop-color="#38b2ac"/>
    </linearGradient>
    <linearGradient id="linear-gradient-4" x1="1" y1="0.5" x2="0" y2="0.5" gradientUnits="objectBoundingBox">
      <stop offset="0" stop-color="#3555ce" stop-opacity="0"/>
      <stop offset="0.471" stop-color="#333ce5" stop-opacity="0"/>
      <stop offset="1" stop-color="#38b2ac"/>
    </linearGradient>
  </defs>
  <g id="bg" transform="translate(-2822 -6594.15)">
    <path id="Rectangle_1040" data-name="Rectangle 1040" d="M3848.967,6596.851H2834.893q.846,2.011,1.718,4.008c54.309,125.638,162.253,222.909,235.482,222.917,46.826,0,112.858-23.588,159.62-17.536,56.576,7.327,60.552,67.882,86.868,120.119,24.613,48.858,46.356,89.33,108.221,87.582,54.6-1.548,135.316-44.865,173.688-77.573,45.864-39.1,90.757-78.943,134.649-120.044,46.555-43.6,83.9-84.344,113.828-121.333Z" fill="#38b2ac"/>
    <g id="Rectangle_1040_copy" data-name="Rectangle 1040 copy" opacity="0.278">
      <path id="Rectangle_1040_copy-2" data-name="Rectangle 1040 copy" d="M3836.073,6596.851H2822q.847,2.011,1.718,4.008c54.31,125.638,162.252,222.909,235.481,222.917,46.826,0,112.858-23.588,159.62-17.536,56.576,7.327,60.553,67.882,86.869,120.119,24.614,48.858,46.356,89.33,108.221,87.582,54.6-1.548,135.316-44.865,173.689-77.573,45.863-39.1,90.757-78.943,134.648-120.044,46.556-43.6,83.9-84.344,113.828-121.333Z" fill="rgba(63,87,216,0)"/>
      <path id="Gradient_Overlay" data-name="Gradient Overlay" d="M3836.073,6596.851H2822q.847,2.011,1.718,4.008c54.31,125.638,162.252,222.909,235.481,222.917,46.826,0,112.858-23.588,159.62-17.536,56.576,7.327,60.553,67.882,86.869,120.119,24.614,48.858,46.356,89.33,108.221,87.582,54.6-1.548,135.316-44.865,173.689-77.573,45.863-39.1,90.757-78.943,134.648-120.044,46.556-43.6,83.9-84.344,113.828-121.333Z" fill="url(#linear-gradient)"/>
    </g>
    <path id="Rectangle_1041" data-name="Rectangle 1041" d="M2897.775,6596.155c56.656,96.864,139.094,168.606,198.51,169.5,51.59.778,121.828-20.736,168.591-14.683,56.576,7.319,60.441,57.3,86.757,109.524,24.614,48.865,47.279,91.656,109.144,89.908,54.588-1.548,128.875-41.82,170.126-74.55,48.162-38.212,103.227-84.751,147.119-125.845,26.522-24.833,50.054-48.717,70.947-71.483v-82.373Z" fill="#38b2ac"/>
    <path id="Rectangle_1041_copy" data-name="Rectangle 1041 copy" d="M2897.775,6594.154c56.656,96.864,139.094,168.606,198.51,169.5,51.59.778,121.828-20.736,168.591-14.683,56.576,7.319,60.441,57.3,86.757,109.524,24.614,48.865,47.279,91.656,109.144,89.907,54.588-1.548,128.875-41.82,170.126-74.55,48.162-38.212,103.227-84.751,147.119-125.845,26.522-24.833,50.054-48.717,70.947-71.483V6594.15Z" fill="#4cdbbb"/>
    <g id="Rectangle_1041_copy_2" data-name="Rectangle 1041 copy 2" opacity="0.278">
      <path id="Rectangle_1041_copy_2-2" data-name="Rectangle 1041 copy 2" d="M2884.882,6594.154c56.656,96.864,139.094,168.606,198.51,169.5,51.59.778,121.829-20.736,168.591-14.683,56.576,7.319,60.441,57.3,86.757,109.524,24.614,48.865,47.279,91.656,109.144,89.907,54.588-1.548,128.875-41.82,170.126-74.55,48.162-38.212,103.227-84.751,147.118-125.845,26.522-24.833,50.055-48.717,70.946-71.483V6594.15Z" fill="rgba(68,125,229,0)"/>
      <path id="Gradient_Overlay-2" data-name="Gradient Overlay" d="M2884.882,6594.154c56.656,96.864,139.094,168.606,198.51,169.5,51.59.778,121.829-20.736,168.591-14.683,56.576,7.319,60.441,57.3,86.757,109.524,24.614,48.865,47.279,91.656,109.144,89.907,54.588-1.548,128.875-41.82,170.126-74.55,48.162-38.212,103.227-84.751,147.118-125.845,26.522-24.833,50.055-48.717,70.946-71.483V6594.15Z" fill="url(#linear-gradient-2)"/>
    </g>
    <path id="Rectangle_1042" data-name="Rectangle 1042" d="M3848.967,6597.155H2967.4c49.744,66.1,108.047,111.117,153.083,112.392,56.362,1.585,130.791-17.9,177.546-11.846,56.584,7.327,60.338,46.709,86.654,98.946,24.614,48.857,48.194,93.974,110.058,92.226,54.588-1.548,122.4-38.79,166.571-71.52,50.413-37.353,115.7-90.56,159.588-131.661q14.625-13.7,28.066-26.989Z" fill="#4ce5c3"/>
    <path id="Rectangle_1042_copy" data-name="Rectangle 1042 copy" d="M3848.967,6595.154H2967.4c49.744,66.1,108.047,111.118,153.083,112.392,56.362,1.585,130.791-17.9,177.546-11.846,56.584,7.328,60.338,46.71,86.654,98.946,24.614,48.857,48.194,93.974,110.058,92.226,54.588-1.548,122.4-38.79,166.571-71.52,50.413-37.353,115.7-90.559,159.588-131.661q14.625-13.7,28.066-26.989Z" fill="#4ae3cb"/>
    <g id="Rectangle_1042_copy_2" data-name="Rectangle 1042 copy 2" opacity="0.278">
      <path id="Rectangle_1042_copy_2-2" data-name="Rectangle 1042 copy 2" d="M3836.073,6595.154H2954.508c49.745,66.1,108.047,111.118,153.083,112.392,56.361,1.585,130.791-17.9,177.545-11.846,56.584,7.328,60.338,46.71,86.654,98.946,24.614,48.857,48.194,93.974,110.058,92.226,54.588-1.548,122.4-38.79,166.571-71.52,50.413-37.353,115.705-90.559,159.589-131.661q14.625-13.7,28.065-26.989Z" fill="rgba(78,169,227,0)"/>
      <path id="Gradient_Overlay-3" data-name="Gradient Overlay" d="M3836.073,6595.154H2954.508c49.745,66.1,108.047,111.118,153.083,112.392,56.361,1.585,130.791-17.9,177.545-11.846,56.584,7.328,60.338,46.71,86.654,98.946,24.614,48.857,48.194,93.974,110.058,92.226,54.588-1.548,122.4-38.79,166.571-71.52,50.413-37.353,115.705-90.559,159.589-131.661q14.625-13.7,28.065-26.989Z" fill="#38b2ac"/>
    </g>
    <path id="Rectangle_1019" data-name="Rectangle 1019" d="M3040.127,6599.114c33.343,32.73,67.1,53.084,95.494,54.218,60,2.4,137.13-14.759,183-8.822,55.51,7.187,59.092,35.426,84.9,86.665,24.158,47.932,48.2,94.469,108.891,92.747,53.568-1.512,113.714-35.106,159.939-67.182s110.444-82.45,154.289-121.575v-36.051Z" fill="#52d5c4"/>
    <path id="Rectangle_1019_copy" data-name="Rectangle 1019 copy" d="M3040.127,6597.114c33.343,32.73,67.1,53.084,95.494,54.218,60,2.4,137.13-14.759,183-8.822,55.51,7.187,59.092,35.426,84.9,86.665,24.158,47.932,48.2,94.469,108.891,92.747,53.568-1.512,113.714-35.106,159.939-67.182s110.444-82.45,154.289-121.575v-36.051Z" fill="#57e2d0"/>
    <g id="Rectangle_1019_copy_2" data-name="Rectangle 1019 copy 2" opacity="0.278">
      <path id="Rectangle_1019_copy_2-2" data-name="Rectangle 1019 copy 2" d="M3027.234,6597.114c33.342,32.73,67.1,53.084,95.493,54.218,60,2.4,137.131-14.759,183-8.822,55.511,7.187,59.092,35.426,84.9,86.665,24.158,47.932,48.2,94.469,108.891,92.747,53.568-1.512,113.713-35.106,159.938-67.182s110.444-82.45,154.289-121.575v-36.051Z" fill="rgba(78,186,218,0)"/>
      <path id="Gradient_Overlay-4" data-name="Gradient Overlay" d="M3027.234,6597.114c33.342,32.73,67.1,53.084,95.493,54.218,60,2.4,137.131-14.759,183-8.822,55.511,7.187,59.092,35.426,84.9,86.665,24.158,47.932,48.2,94.469,108.891,92.747,53.568-1.512,113.713-35.106,159.938-67.182s110.444-82.45,154.289-121.575v-36.051Z" fill="#05a099"/>
    </g>
    <path id="Rectangle_1043" data-name="Rectangle 1043" d="M3848.967,6597.155H3398.243c25.918,10.683,32.861,30.708,52.536,69.779,24.613,48.858,50.038,98.627,111.9,96.879,54.588-1.548,109.359-32.819,159.445-65.467,35.819-23.351,84.887-59.823,126.839-93.76Z" fill="#42cecc"/>
    <path id="Rectangle_1043_copy" data-name="Rectangle 1043 copy" d="M3848.967,6595.154H3398.243c25.918,10.684,32.861,30.708,52.536,69.779,24.613,48.858,50.038,98.627,111.9,96.879,54.588-1.548,109.359-32.819,159.445-65.467,35.819-23.351,84.887-59.823,126.839-93.76Z" fill="#59e3c9"/>
    <g id="Rectangle_1043_copy_2" data-name="Rectangle 1043 copy 2" opacity="0.278">
      <path id="Rectangle_1043_copy_2-2" data-name="Rectangle 1043 copy 2" d="M3836.073,6595.154H3385.35c25.918,10.684,32.861,30.708,52.536,69.779,24.614,48.858,50.039,98.627,111.9,96.879,54.588-1.548,109.359-32.819,159.445-65.467,35.819-23.351,84.887-59.823,126.838-93.76Z" fill="rgba(79,227,230,0)"/>
      <path id="Gradient_Overlay-5" data-name="Gradient Overlay" d="M3836.073,6595.154H3385.35c25.918,10.684,32.861,30.708,52.536,69.779,24.614,48.858,50.039,98.627,111.9,96.879,54.588-1.548,109.359-32.819,159.445-65.467,35.819-23.351,84.887-59.823,126.838-93.76Z" fill="url(#linear-gradient-3)"/>
    </g>
    <path id="Rectangle_1044" data-name="Rectangle 1044" d="M3481.35,6597.155q1.2,2.389,2.481,4.919c24.614,48.865,50.954,100.953,112.818,99.205,54.6-1.548,102.806-29.863,155.89-62.445,17.767-10.9,39.334-25.5,61.944-41.679Z" fill="#6ff8da"/>
    <path id="Rectangle_1044_copy" data-name="Rectangle 1044 copy" d="M3482.424,6595.154q1.2,2.39,2.481,4.919c24.614,48.865,50.953,100.954,112.818,99.206,54.6-1.549,102.806-29.863,155.89-62.445,17.767-10.9,39.334-25.5,61.944-41.68Z" fill="#4ce5c3"/>
    <g id="Rectangle_1044_copy_2" data-name="Rectangle 1044 copy 2" opacity="0.278">
      <path id="Rectangle_1044_copy_2-2" data-name="Rectangle 1044 copy 2" d="M3473.829,6595.154q1.2,2.39,2.481,4.919c24.614,48.865,50.954,100.954,112.818,99.206,54.6-1.549,102.806-29.863,155.89-62.445,17.767-10.9,39.335-25.5,61.944-41.68Z" fill="rgba(76,229,195,0)"/>
      <path id="Gradient_Overlay-6" data-name="Gradient Overlay" d="M3473.829,6595.154q1.2,2.39,2.481,4.919c24.614,48.865,50.954,100.954,112.818,99.206,54.6-1.549,102.806-29.863,155.89-62.445,17.767-10.9,39.335-25.5,61.944-41.68Z" fill="url(#linear-gradient-4)"/>
    </g>
  </g>
</svg>
